<?xml version="1.0" encoding="UTF-8"?><svg id="Graphic_Elements" xmlns="http://www.w3.org/2000/svg" viewBox="0 0 113.39 113.39"><defs><style>.cls-1{fill:#ff3d16;}.cls-2{fill:#151515;}</style></defs><path class="cls-2" d="M56.82,112.03h0c-30.2,0-54.68-24.48-54.68-54.68h0C2.14,27.15,26.62,2.67,56.82,2.67h0c30.2,0,54.68,24.48,54.68,54.68h0c0,30.2-24.48,54.68-54.68,54.68Z"/><g><path class="cls-1" d="M44.38,74.44l.16,.14c.49,.35,.84,.84,1.31,1.22,1.45,1.17,3.09,1.8,4.96,1.92,4.44,.27,8.31-3.07,8.81-7.46,.02-.21,.02-.43,.02-.65,0-13.22,0-26.44,0-39.67q0-.89,.89-.89c2.01,0,4.02,0,6.03,0,.19,0,.39-.04,.56,.08,.01,.01,.02,.02,.04,.03,.1,.1,.12,.23,.15,.36,.77,3.56,2.65,6.41,5.59,8.55,.18,.13,.34,.3,.51,.44,.13,.11,.26,.22,.38,.33,.47,.27,.81,.7,1.22,1.05,1.63,1.36,3.46,2.29,5.51,2.82,.18,.05,.39,.04,.52,.21,0,.01,.02,.02,.03,.03,.12,.13,.1,.29,.1,.44,0,2.33,0,4.66,0,6.99,0,.53-.07,.56-.61,.56-1.71,0-3.38-.23-5.04-.61-2.85-.65-5.49-1.81-7.93-3.42-.13-.08-.26-.26-.4-.2-.17,.08-.08,.3-.08,.46,0,6.56,.02,13.13-.01,19.69-.03,4.59-1.49,8.69-4.49,12.19-3.19,3.71-7.24,5.87-12.11,6.46-3.75,.46-7.31-.22-10.68-1.89-.55-.27-1.07-.58-1.56-.95l-.46-.41c-1.16-.96-1.97-2.2-2.73-3.48-1.16-1.96-1.92-4.09-2.29-6.34-.21-1.29-.32-2.59-.25-3.89,.23-4.2,1.64-7.95,4.35-11.19,2.27-2.72,5.11-4.62,8.46-5.76,1.4-.48,2.84-.77,4.31-.88,.27-.02,.54-.08,.82-.07,.13,0,.27,0,.38,.09,.01,.01,.03,.02,.04,.03,.08,.13,.06,.28,.06,.42,0,2.37,0,4.73,0,7.1,0,.08,0,.17,0,.25-.01,.24-.13,.32-.36,.25-.65-.18-1.31-.27-1.98-.3-1.04-.06-2.06,.09-3.03,.45-3.25,1.2-5.23,3.53-5.64,6.96-.41,3.38,.93,6.09,3.74,8.03,.24,.16,.48,.32,.7,.5Z"/><path class="cls-1" d="M38.25,82.68c.13-.03,.2,.07,.28,.12,2.11,1.29,4.4,2.13,6.84,2.52,1.23,.2,2.47,.28,3.72,.22,4.16-.22,7.88-1.6,11.1-4.26,3.1-2.56,5.16-5.8,6.19-9.68,.33-1.23,.5-2.48,.57-3.75,.04-.73,.03-1.46,.03-2.19,0-6.25,0-12.51,0-18.76v-.43c.16-.04,.24,.08,.33,.14,2.23,1.52,4.64,2.65,7.24,3.37,1.43,.39,2.88,.66,4.36,.79,.62,.05,1.24,.05,1.86,.09,.27,.02,.28,0,.28-.27,0-.3,0-.6,0-.9,0-2.12,0-4.23,0-6.35,0-.13,0-.26,.01-.39,.56,.06,1.11,.18,1.67,.23,.35,.03,.69,.06,1.04,.05,.17,0,.24,.05,.22,.23,0,.07,0,.14,0,.22v9.18c0,.06,0,.12,0,.18,0,.27,0,.27-.29,.27-.96,0-1.91-.07-2.86-.19-1.94-.26-3.82-.73-5.64-1.44-1.74-.68-3.39-1.55-4.93-2.61-.1-.07-.19-.13-.34-.22v.43c0,6.68,0,13.37,0,20.05,0,3.56-.93,6.87-2.83,9.89-2.3,3.65-5.48,6.21-9.53,7.68-2.46,.89-5,1.24-7.61,1.04-4.41-.33-8.22-2.01-11.46-4.99-.09-.08-.16-.17-.24-.26Z"/><path class="cls-1" d="M67.11,29.14c-.13,0-.26,.02-.39,.02-2.15,0-4.31,0-6.46,0q-.5,0-.5,.48c0,13.15,0,26.31,0,39.46,0,.91-.07,1.82-.35,2.69-1.01,3.08-3.08,5.11-6.23,5.83-3.39,.77-6.26-.26-8.55-2.88-.04-.04-.06-.1-.09-.15,.65,.26,1.31,.52,2,.66,2.21,.44,4.29,.1,6.2-1.08,2.21-1.36,3.52-3.36,3.98-5.91,.09-.48,.1-.97,.1-1.46,0-13.18,0-26.36,0-39.53,0-.61-.09-.54,.53-.54,3.04,0,6.08,0,9.12,0,.07,0,.14,0,.22,0,.31,0,.32,0,.31,.32,0,.7-.01,1.41,.13,2.1Z"/><path class="cls-1" d="M50.85,50.75c-1.86,.06-3.67,.36-5.44,.94-2.55,.85-4.82,2.18-6.79,4-2.59,2.39-4.36,5.29-5.33,8.67-.34,1.21-.54,2.44-.63,3.69-.05,.75-.07,1.51-.03,2.26,.11,2.09,.54,4.11,1.34,6.05,.89,2.17,2.13,4.1,3.74,5.8,.03,.03,.05,.08,.08,.12-.37-.16-.66-.42-.97-.67-3.01-2.39-5.14-5.4-6.31-9.07-.41-1.28-.66-2.59-.78-3.92-.09-.97-.1-1.94-.04-2.9,.15-2.22,.67-4.36,1.59-6.39,.96-2.13,2.27-4.01,3.93-5.64,1.94-1.9,4.19-3.32,6.75-4.24,1.6-.58,3.26-.93,4.96-1.05,1.23-.09,2.46-.06,3.68,.08,.17,.02,.26,.05,.26,.25-.01,.68-.01,1.36-.02,2.04Z"/><path class="cls-1" d="M44.38,74.44c-.75-.34-1.4-.83-1.98-1.39-1.47-1.42-2.35-3.15-2.58-5.18-.48-4.27,2.21-7.95,5.95-9.09,1.6-.49,3.19-.5,4.8-.07,.09,.02,.18,.06,.28,.04,.05-.13,.03-.26,.03-.39,0-2.39,0-4.78,0-7.17,0-.13,.01-.26,.02-.39,.92-.06,1.84,.02,2.75,.12,.14,.02,.18,.08,.18,.21,0,.07,0,.14,0,.22,0,3.17,0,6.34,0,9.5,0,.12,.03,.24-.04,.36-.42-.08-.83-.2-1.25-.26-2.45-.34-4.65,.23-6.59,1.76-1.7,1.34-2.75,3.1-3.1,5.24-.37,2.27,.1,4.37,1.4,6.27,.05,.08,.1,.16,.15,.24Z"/><path class="cls-1" d="M73.4,38.52c-.92-.54-1.73-1.23-2.47-2-1.99-2.05-3.25-4.48-3.78-7.29,0-.02,0-.05,0-.07,.86-.05,1.72,0,2.58-.02,.15,0,.22,.06,.21,.21,0,.06,0,.12,0,.18-.04,2.41,.67,4.61,1.84,6.68,.42,.74,.92,1.42,1.47,2.07,.06,.07,.15,.13,.16,.23Z"/><path class="cls-1" d="M81.04,42.92c-2.45-.52-4.61-1.63-6.47-3.29-.27-.24-.56-.48-.78-.79,.09,0,.16,.05,.23,.09,1.48,.85,3.07,1.41,4.76,1.69,.66,.11,1.32,.18,1.99,.17,.28,0,.29,0,.29,.27,0,.62,0,1.24-.01,1.86Z"/></g></svg>