<?xml version="1.0" encoding="UTF-8"?><svg id="Graphic_Elements" xmlns="http://www.w3.org/2000/svg" viewBox="0 0 113.39 113.39"><defs><style>.cls-1{fill:#ff3d16;}.cls-2{fill:#151515;}</style></defs><path class="cls-2" d="M56.82,112.03h0c-30.2,0-54.68-24.48-54.68-54.68h0C2.14,27.15,26.62,2.67,56.82,2.67h0c30.2,0,54.68,24.48,54.68,54.68h0c0,30.2-24.48,54.68-54.68,54.68Z"/><path class="cls-1" d="M31.07,75.66c5.29,3.39,11.57,5.37,18.32,5.37,22.2,0,34.73-18.75,33.98-35.56,2.33-1.68,4.36-3.79,5.96-6.19-2.14,.95-4.45,1.59-6.87,1.88,2.47-1.48,4.36-3.82,5.25-6.61-2.31,1.37-4.87,2.37-7.59,2.9-2.18-2.32-5.29-3.77-8.73-3.77-7.72,0-13.39,7.2-11.64,14.68-9.94-.5-18.74-5.26-24.64-12.49-3.13,5.37-1.62,12.4,3.7,15.96-1.96-.06-3.81-.6-5.42-1.5-.13,5.54,3.84,10.72,9.59,11.87-1.68,.46-3.53,.56-5.4,.2,1.52,4.75,5.93,8.21,11.17,8.3-5.02,3.94-11.36,5.7-17.7,4.95Z"/></svg>