<?xml version="1.0" encoding="UTF-8"?><svg id="Graphic_Elements" xmlns="http://www.w3.org/2000/svg" viewBox="0 0 113.39 113.39"><defs><style>.cls-1{fill:#ff3d16;}.cls-2{fill:#151515;}</style></defs><path class="cls-2" d="M56.82,112.03h0c-30.2,0-54.68-24.48-54.68-54.68h0C2.14,27.15,26.62,2.67,56.82,2.67h0c30.2,0,54.68,24.48,54.68,54.68h0c0,30.2-24.48,54.68-54.68,54.68Z"/><g><path class="cls-2" d="M56.82,112.03h0c-30.2,0-54.68-24.48-54.68-54.68h0C2.14,27.15,26.62,2.67,56.82,2.67h0c30.2,0,54.68,24.48,54.68,54.68h0c0,30.2-24.48,54.68-54.68,54.68Z"/><g><path class="cls-1" d="M56.82,32.77c8.01,0,8.95,.03,12.12,.17,2.92,.13,4.51,.62,5.57,1.03,1.4,.54,2.4,1.19,3.45,2.24,1.05,1.05,1.7,2.05,2.24,3.45,.41,1.06,.9,2.64,1.03,5.57,.14,3.16,.17,4.11,.17,12.12s-.03,8.95-.17,12.12c-.13,2.92-.62,4.51-1.03,5.57-.54,1.4-1.19,2.4-2.24,3.45-1.05,1.05-2.05,1.7-3.45,2.24-1.06,.41-2.64,.9-5.57,1.03-3.16,.14-4.11,.17-12.12,.17s-8.95-.03-12.12-.17c-2.92-.13-4.51-.62-5.57-1.03-1.4-.54-2.4-1.19-3.45-2.24-1.05-1.05-1.7-2.05-2.24-3.45-.41-1.06-.9-2.64-1.03-5.57-.14-3.16-.17-4.11-.17-12.12s.03-8.95,.17-12.12c.13-2.92,.62-4.51,1.03-5.57,.54-1.4,1.19-2.4,2.24-3.45,1.05-1.05,2.05-1.7,3.45-2.24,1.06-.41,2.64-.9,5.57-1.03,3.16-.14,4.11-.17,12.12-.17m0-5.4c-8.14,0-9.16,.04-12.36,.18-3.19,.15-5.37,.65-7.28,1.39-1.97,.77-3.64,1.79-5.31,3.46s-2.69,3.34-3.46,5.31c-.74,1.91-1.25,4.09-1.39,7.28-.15,3.2-.18,4.22-.18,12.36s.03,9.16,.18,12.36c.15,3.19,.65,5.37,1.39,7.28,.77,1.97,1.79,3.64,3.46,5.31,1.67,1.67,3.34,2.69,5.31,3.46,1.91,.74,4.09,1.25,7.28,1.39,3.2,.15,4.22,.18,12.36,.18s9.16-.03,12.36-.18c3.19-.15,5.37-.65,7.28-1.39,1.97-.77,3.64-1.79,5.31-3.46,1.67-1.67,2.69-3.34,3.46-5.31,.74-1.91,1.25-4.09,1.39-7.28,.15-3.2,.18-4.22,.18-12.36s-.03-9.16-.18-12.36c-.15-3.19-.65-5.37-1.39-7.28-.77-1.97-1.79-3.64-3.46-5.31s-3.34-2.69-5.31-3.46c-1.91-.74-4.09-1.25-7.28-1.39-3.2-.15-4.22-.18-12.36-.18"/><path class="cls-1" d="M56.82,41.95c-8.5,0-15.4,6.89-15.4,15.4s6.89,15.4,15.4,15.4,15.4-6.89,15.4-15.4-6.89-15.4-15.4-15.4m0,25.39c-5.52,0-9.99-4.47-9.99-9.99s4.47-9.99,9.99-9.99,9.99,4.47,9.99,9.99-4.47,9.99-9.99,9.99"/><path class="cls-1" d="M76.42,41.35c0,1.99-1.61,3.6-3.6,3.6s-3.6-1.61-3.6-3.6,1.61-3.6,3.6-3.6,3.6,1.61,3.6,3.6"/></g></g></svg>