<?xml version="1.0" encoding="UTF-8"?><svg id="Graphic_Elements" xmlns="http://www.w3.org/2000/svg" viewBox="0 0 113.39 113.39"><defs><style>.cls-1{fill:#ff3d16;}.cls-2{fill:#151515;}</style></defs><path class="cls-2" d="M56.82,112.03h0c-30.2,0-54.68-24.48-54.68-54.68h0C2.14,27.15,26.62,2.67,56.82,2.67h0c30.2,0,54.68,24.48,54.68,54.68h0c0,30.2-24.48,54.68-54.68,54.68Z"/><g><path class="cls-1" d="M85.58,43.37c-.66-2.5-2.62-4.47-5.1-5.13-4.5-1.21-22.54-1.21-22.54-1.21,0,0-18.04,0-22.54,1.21-2.48,.67-4.44,2.64-5.1,5.13-1.21,4.53-1.21,13.98-1.21,13.98,0,0,0,9.45,1.21,13.98,.66,2.5,2.62,4.47,5.1,5.13,4.5,1.21,22.54,1.21,22.54,1.21,0,0,18.04,0,22.54-1.21,2.48-.67,4.44-2.64,5.1-5.13,1.21-4.53,1.21-13.98,1.21-13.98,0,0,0-9.45-1.21-13.98Z"/><polygon class="cls-2" points="52.04 65.93 52.04 48.77 67.12 57.35 52.04 65.93"/></g></svg>