<?xml version="1.0" encoding="UTF-8"?><svg id="Graphic_Elements" xmlns="http://www.w3.org/2000/svg" viewBox="0 0 113.39 113.39"><defs><style>.cls-1{fill:#ff3d16;}.cls-2{fill:#151515;}</style></defs><path class="cls-2" d="M56.82,112.03h0c-30.2,0-54.68-24.48-54.68-54.68h0C2.14,27.15,26.62,2.67,56.82,2.67h0c30.2,0,54.68,24.48,54.68,54.68h0c0,30.2-24.48,54.68-54.68,54.68Z"/><g><g><rect class="cls-1" x="30.5" y="44.09" width="11.32" height="36.56"/><path class="cls-1" d="M36.1,39.3c3.7,0,6.69-3.02,6.69-6.75s-3-6.75-6.69-6.75-6.69,3.02-6.69,6.75,2.99,6.75,6.69,6.75Z"/></g><path class="cls-1" d="M59.91,61.46c0-5.14,2.37-8.2,6.9-8.2,4.16,0,6.16,2.94,6.16,8.2v19.19h11.26v-23.15c0-9.79-5.55-14.53-13.3-14.53s-11.02,6.04-11.02,6.04v-4.92h-10.86v36.56h10.86v-19.19Z"/></g></svg>